{
    "accessors" : [
        {
            "bufferView" : 0, 
            "componentType" : 5121, 
            "count" : 600, 
            "max" : [
                163
            ], 
            "min" : [
                0
            ], 
            "type" : "SCALAR"
        }, 
        {
            "bufferView" : 1, 
            "componentType" : 5126, 
            "count" : 164, 
            "max" : [
                1.8679962158203125, 
                3.9377286434173584, 
                -0.2281336486339569
            ], 
            "min" : [
                -1.8679962158203125, 
                0.20175528526306152, 
                -0.2659113109111786
            ], 
            "type" : "VEC3"
        }, 
        {
            "bufferView" : 2, 
            "componentType" : 5126, 
            "count" : 164, 
            "max" : [
                1.0, 
                1.0, 
                -0.0
            ], 
            "min" : [
                -1.0, 
                -1.0, 
                -1.0
            ], 
            "type" : "VEC3"
        }, 
        {
            "bufferView" : 3, 
            "componentType" : 5126, 
            "count" : 164, 
            "max" : [
                1.0, 
                1.0, 
                2.1689527951451737e-09, 
                1.0
            ], 
            "min" : [
                -1.0, 
                -1.0, 
                -2.1689328111307304e-09, 
                1.0
            ], 
            "type" : "VEC4"
        }, 
        {
            "bufferView" : 4, 
            "componentType" : 5126, 
            "count" : 164, 
            "max" : [
                0.953099250793457, 
                0.4742918610572815
            ], 
            "min" : [
                0.5151488184928894, 
                0.056425392627716064
            ], 
            "type" : "VEC2"
        }, 
        {
            "bufferView" : 5, 
            "componentType" : 5123, 
            "count" : 8142, 
            "max" : [
                7262
            ], 
            "min" : [
                0
            ], 
            "type" : "SCALAR"
        }, 
        {
            "bufferView" : 6, 
            "componentType" : 5126, 
            "count" : 7263, 
            "max" : [
                2.1284942626953125, 
                11.91263198852539, 
                6.029438018798828
            ], 
            "min" : [
                -2.1284942626953125, 
                -0.03899788856506348, 
                -0.2659113109111786
            ], 
            "type" : "VEC3"
        }, 
        {
            "bufferView" : 7, 
            "componentType" : 5126, 
            "count" : 7263, 
            "max" : [
                1.0, 
                1.0, 
                0.99969482421875
            ], 
            "min" : [
                -1.0, 
                -1.0, 
                -1.0
            ], 
            "type" : "VEC3"
        }, 
        {
            "bufferView" : 8, 
            "componentType" : 5126, 
            "count" : 7263, 
            "max" : [
                1.0, 
                1.0, 
                0.9999024271965027, 
                1.0
            ], 
            "min" : [
                -1.0, 
                -1.0, 
                -0.9998878240585327, 
                -1.0
            ], 
            "type" : "VEC4"
        }, 
        {
            "bufferView" : 9, 
            "componentType" : 5126, 
            "count" : 7263, 
            "max" : [
                0.6750295162200928, 
                0.5476089715957642
            ], 
            "min" : [
                0.31385207176208496, 
                0.32383882999420166
            ], 
            "type" : "VEC2"
        }, 
        {
            "bufferView" : 10, 
            "componentType" : 5126, 
            "count" : 7263, 
            "max" : [
                0.9904484152793884, 
                0.9843878513202071
            ], 
            "min" : [
                0.01144507434219122, 
                0.015562653541564941
            ], 
            "type" : "VEC2"
        }, 
        {
            "bufferView" : 11, 
            "componentType" : 5121, 
            "count" : 336, 
            "max" : [
                112
            ], 
            "min" : [
                0
            ], 
            "type" : "SCALAR"
        }, 
        {
            "bufferView" : 12, 
            "componentType" : 5126, 
            "count" : 113, 
            "max" : [
                0.35687255859375, 
                5.621082305908203, 
                -0.2345089614391327
            ], 
            "min" : [
                -0.35687255859375, 
                4.907321929931641, 
                -0.3338424861431122
            ], 
            "type" : "VEC3"
        }, 
        {
            "bufferView" : 13, 
            "componentType" : 5126, 
            "count" : 113, 
            "max" : [
                0.9807733297348022, 
                0.9807733297348022, 
                -0.0
            ], 
            "min" : [
                -0.9807733297348022, 
                -0.9807428121566772, 
                -1.0
            ], 
            "type" : "VEC3"
        }, 
        {
            "bufferView" : 14, 
            "componentType" : 5126, 
            "count" : 113, 
            "max" : [
                0.9997827410697937, 
                0.5755324363708496, 
                0.999893307685852, 
                1.0
            ], 
            "min" : [
                -0.0035890096332877874, 
                -0.5289086699485779, 
                -0.9998564124107361, 
                1.0
            ], 
            "type" : "VEC4"
        }, 
        {
            "bufferView" : 15, 
            "componentType" : 5126, 
            "count" : 113, 
            "max" : [
                0.832897424697876, 
                0.549294501543045
            ], 
            "min" : [
                0.7505683898925781, 
                0.46725285053253174
            ], 
            "type" : "VEC2"
        }, 
        {
            "bufferView" : 16, 
            "componentType" : 5126, 
            "count" : 113, 
            "max" : [
                0.8243725299835205, 
                0.5420432090759277
            ], 
            "min" : [
                0.7584909200668335, 
                0.47616153955459595
            ], 
            "type" : "VEC2"
        }, 
        {
            "bufferView" : 17, 
            "componentType" : 5121, 
            "count" : 240, 
            "max" : [
                80
            ], 
            "min" : [
                0
            ], 
            "type" : "SCALAR"
        }, 
        {
            "bufferView" : 18, 
            "componentType" : 5126, 
            "count" : 81, 
            "max" : [
                0.3686637878417969, 
                6.541446685791016, 
                -0.2345089614391327
            ], 
            "min" : [
                -0.3686637878417969, 
                5.804126739501953, 
                -0.281073659658432
            ], 
            "type" : "VEC3"
        }, 
        {
            "bufferView" : 19, 
            "componentType" : 5126, 
            "count" : 81, 
            "max" : [
                1.0, 
                0.999969482421875, 
                -0.0
            ], 
            "min" : [
                -1.0, 
                -1.0, 
                -1.0
            ], 
            "type" : "VEC3"
        }, 
        {
            "bufferView" : 20, 
            "componentType" : 5126, 
            "count" : 81, 
            "max" : [
                0.9998462796211243, 
                0.5319640636444092, 
                0.9999986886978149, 
                1.0
            ], 
            "min" : [
                -1.7239052851891756e-08, 
                -0.5065977573394775, 
                -0.9999986886978149, 
                1.0
            ], 
            "type" : "VEC4"
        }, 
        {
            "bufferView" : 21, 
            "componentType" : 5126, 
            "count" : 81, 
            "max" : [
                0.8315922021865845, 
                0.6304810047149658
            ], 
            "min" : [
                0.7510883808135986, 
                0.5502242147922516
            ], 
            "type" : "VEC2"
        }, 
        {
            "bufferView" : 22, 
            "componentType" : 5126, 
            "count" : 81, 
            "max" : [
                0.8259702920913696, 
                0.6263614296913147
            ], 
            "min" : [
                0.7568930983543396, 
                0.5572832226753235
            ], 
            "type" : "VEC2"
        }, 
        {
            "bufferView" : 23, 
            "componentType" : 5123, 
            "count" : 1164, 
            "max" : [
                1002
            ], 
            "min" : [
                0
            ], 
            "type" : "SCALAR"
        }, 
        {
            "bufferView" : 24, 
            "componentType" : 5126, 
            "count" : 1003, 
            "max" : [
                1.4149169921875, 
                1.832477331161499, 
                3.522022008895874
            ], 
            "min" : [
                -1.4149169921875, 
                0.3231847286224365, 
                0.920245885848999
            ], 
            "type" : "VEC3"
        }, 
        {
            "bufferView" : 25, 
            "componentType" : 5126, 
            "count" : 1003, 
            "max" : [
                0.9947202801704407, 
                0.99981689453125, 
                0.99993896484375
            ], 
            "min" : [
                -0.9947202801704407, 
                -0.9947202801704407, 
                -0.9948118329048157
            ], 
            "type" : "VEC3"
        }, 
        {
            "bufferView" : 26, 
            "componentType" : 5126, 
            "count" : 1003, 
            "max" : [
                1.0, 
                0.9999971985816956, 
                0.9829639792442322, 
                1.0
            ], 
            "min" : [
                -1.0, 
                -0.9990917444229126, 
                -0.9926044940948486, 
                -1.0
            ], 
            "type" : "VEC4"
        }, 
        {
            "bufferView" : 27, 
            "componentType" : 5126, 
            "count" : 1003, 
            "max" : [
                0.6456291079521179, 
                0.6456291079521179
            ], 
            "min" : [
                0.3543708920478821, 
                0.3543708920478821
            ], 
            "type" : "VEC2"
        }, 
        {
            "bufferView" : 28, 
            "componentType" : 5126, 
            "count" : 1003, 
            "max" : [
                0.5682267546653748, 
                0.9776640273630619
            ], 
            "min" : [
                0.027966637164354324, 
                0.06088441610336304
            ], 
            "type" : "VEC2"
        }
    ], 
    "asset" : {
        "generator" : "Khronos Blender glTF 2.0 exporter", 
        "version" : "2.0"
    }, 
    "bufferViews" : [
        {
            "buffer" : 0, 
            "byteLength" : 600, 
            "byteOffset" : 0, 
            "target" : 34963
        }, 
        {
            "buffer" : 0, 
            "byteLength" : 1968, 
            "byteOffset" : 600, 
            "target" : 34962
        }, 
        {
            "buffer" : 0, 
            "byteLength" : 1968, 
            "byteOffset" : 2568, 
            "target" : 34962
        }, 
        {
            "buffer" : 0, 
            "byteLength" : 2624, 
            "byteOffset" : 4536, 
            "target" : 34962
        }, 
        {
            "buffer" : 0, 
            "byteLength" : 1312, 
            "byteOffset" : 7160, 
            "target" : 34962
        }, 
        {
            "buffer" : 0, 
            "byteLength" : 16284, 
            "byteOffset" : 8472, 
            "target" : 34963
        }, 
        {
            "buffer" : 0, 
            "byteLength" : 87156, 
            "byteOffset" : 24756, 
            "target" : 34962
        }, 
        {
            "buffer" : 0, 
            "byteLength" : 87156, 
            "byteOffset" : 111912, 
            "target" : 34962
        }, 
        {
            "buffer" : 0, 
            "byteLength" : 116208, 
            "byteOffset" : 199068, 
            "target" : 34962
        }, 
        {
            "buffer" : 0, 
            "byteLength" : 58104, 
            "byteOffset" : 315276, 
            "target" : 34962
        }, 
        {
            "buffer" : 0, 
            "byteLength" : 58104, 
            "byteOffset" : 373380, 
            "target" : 34962
        }, 
        {
            "buffer" : 0, 
            "byteLength" : 336, 
            "byteOffset" : 431484, 
            "target" : 34963
        }, 
        {
            "buffer" : 0, 
            "byteLength" : 1356, 
            "byteOffset" : 431820, 
            "target" : 34962
        }, 
        {
            "buffer" : 0, 
            "byteLength" : 1356, 
            "byteOffset" : 433176, 
            "target" : 34962
        }, 
        {
            "buffer" : 0, 
            "byteLength" : 1808, 
            "byteOffset" : 434532, 
            "target" : 34962
        }, 
        {
            "buffer" : 0, 
            "byteLength" : 904, 
            "byteOffset" : 436340, 
            "target" : 34962
        }, 
        {
            "buffer" : 0, 
            "byteLength" : 904, 
            "byteOffset" : 437244, 
            "target" : 34962
        }, 
        {
            "buffer" : 0, 
            "byteLength" : 240, 
            "byteOffset" : 438148, 
            "target" : 34963
        }, 
        {
            "buffer" : 0, 
            "byteLength" : 972, 
            "byteOffset" : 438388, 
            "target" : 34962
        }, 
        {
            "buffer" : 0, 
            "byteLength" : 972, 
            "byteOffset" : 439360, 
            "target" : 34962
        }, 
        {
            "buffer" : 0, 
            "byteLength" : 1296, 
            "byteOffset" : 440332, 
            "target" : 34962
        }, 
        {
            "buffer" : 0, 
            "byteLength" : 648, 
            "byteOffset" : 441628, 
            "target" : 34962
        }, 
        {
            "buffer" : 0, 
            "byteLength" : 648, 
            "byteOffset" : 442276, 
            "target" : 34962
        }, 
        {
            "buffer" : 0, 
            "byteLength" : 2328, 
            "byteOffset" : 442924, 
            "target" : 34963
        }, 
        {
            "buffer" : 0, 
            "byteLength" : 12036, 
            "byteOffset" : 445252, 
            "target" : 34962
        }, 
        {
            "buffer" : 0, 
            "byteLength" : 12036, 
            "byteOffset" : 457288, 
            "target" : 34962
        }, 
        {
            "buffer" : 0, 
            "byteLength" : 16048, 
            "byteOffset" : 469324, 
            "target" : 34962
        }, 
        {
            "buffer" : 0, 
            "byteLength" : 8024, 
            "byteOffset" : 485372, 
            "target" : 34962
        }, 
        {
            "buffer" : 0, 
            "byteLength" : 8024, 
            "byteOffset" : 493396, 
            "target" : 34962
        }
    ], 
    "buffers" : [
        {
            "byteLength" : 501420, 
            "uri" : "oculus-go-controller.bin"
        }
    ], 
    "images" : [
        {
            "name" : "oculus-go-controller-texture", 
            "uri" : "oculus-go-controller-texture.jpg"
        }
    ], 
    "materials" : [
        {
            "name" : "mp", 
            "pbrMetallicRoughness" : {
                "baseColorTexture" : {
                    "index" : 0
                }, 
                "metallicFactor" : 0.0
            }
        }, 
        {
            "name" : "mp.trackpad", 
            "pbrMetallicRoughness" : {
                "baseColorTexture" : {
                    "index" : 0
                }, 
                "metallicFactor" : 0.0
            }
        }, 
        {
            "name" : "mp.trigger", 
            "pbrMetallicRoughness" : {
                "baseColorTexture" : {
                    "index" : 0
                }, 
                "metallicFactor" : 0.0
            }
        }
    ], 
    "meshes" : [
        {
            "name" : "Untitled", 
            "primitives" : [
                {
                    "attributes" : {
                        "NORMAL" : 2, 
                        "POSITION" : 1, 
                        "TANGENT" : 3, 
                        "TEXCOORD_0" : 4
                    }, 
                    "indices" : 0, 
                    "material" : 1
                }
            ]
        }, 
        {
            "name" : "Untitled.001", 
            "primitives" : [
                {
                    "attributes" : {
                        "NORMAL" : 7, 
                        "POSITION" : 6, 
                        "TANGENT" : 8, 
                        "TEXCOORD_0" : 9, 
                        "TEXCOORD_1" : 10
                    }, 
                    "indices" : 5, 
                    "material" : 0
                }
            ]
        }, 
        {
            "name" : "Untitled.004", 
            "primitives" : [
                {
                    "attributes" : {
                        "NORMAL" : 13, 
                        "POSITION" : 12, 
                        "TANGENT" : 14, 
                        "TEXCOORD_0" : 15, 
                        "TEXCOORD_1" : 16
                    }, 
                    "indices" : 11, 
                    "material" : 0
                }
            ]
        }, 
        {
            "name" : "Untitled.002", 
            "primitives" : [
                {
                    "attributes" : {
                        "NORMAL" : 19, 
                        "POSITION" : 18, 
                        "TANGENT" : 20, 
                        "TEXCOORD_0" : 21, 
                        "TEXCOORD_1" : 22
                    }, 
                    "indices" : 17, 
                    "material" : 0
                }
            ]
        }, 
        {
            "name" : "Untitled.003", 
            "primitives" : [
                {
                    "attributes" : {
                        "NORMAL" : 25, 
                        "POSITION" : 24, 
                        "TANGENT" : 26, 
                        "TEXCOORD_0" : 27, 
                        "TEXCOORD_1" : 28
                    }, 
                    "indices" : 23, 
                    "material" : 2
                }
            ]
        }
    ], 
    "nodes" : [
        {
            "mesh" : 2, 
            "name" : "oculus_go_button_back", 
            "rotation" : [
                0.7071068286895752, 
                0.0, 
                -0.0, 
                0.7071067094802856
            ], 
            "scale" : [
                0.009999999776482582, 
                0.009999999776482582, 
                0.009999999776482582
            ], 
            "translation" : [
                0.0, 
                0.0, 
                1.7763568394002505e-15
            ]
        }, 
        {
            "mesh" : 3, 
            "name" : "oculus_go_button_home", 
            "rotation" : [
                0.7071068286895752, 
                0.0, 
                -0.0, 
                0.7071067094802856
            ], 
            "scale" : [
                0.009999999776482582, 
                0.009999999776482582, 
                0.009999999776482582
            ], 
            "translation" : [
                0.0, 
                0.0, 
                1.7763568394002505e-15
            ]
        }, 
        {
            "mesh" : 4, 
            "name" : "oculus_go_button_trigger", 
            "rotation" : [
                0.7071068286895752, 
                0.0, 
                -0.0, 
                0.7071067094802856
            ], 
            "scale" : [
                0.009999999776482582, 
                0.009999999776482582, 
                0.009999999776482582
            ], 
            "translation" : [
                0.0, 
                0.0, 
                1.7763568394002505e-15
            ]
        }, 
        {
            "mesh" : 1, 
            "name" : "oculus_go_controller", 
            "rotation" : [
                0.7071068286895752, 
                0.0, 
                -0.0, 
                0.7071067094802856
            ], 
            "scale" : [
                0.009999999776482582, 
                0.009999999776482582, 
                0.009999999776482582
            ], 
            "translation" : [
                0.0, 
                0.0, 
                1.7763568394002505e-15
            ]
        }, 
        {
            "mesh" : 0, 
            "name" : "oculus_go_touchpad", 
            "rotation" : [
                0.7071068286895752, 
                0.0, 
                -0.0, 
                0.7071067094802856
            ], 
            "scale" : [
                0.009999999776482582, 
                0.009999999776482582, 
                0.009999999776482582
            ], 
            "translation" : [
                0.0, 
                0.0, 
                1.7763568394002505e-15
            ]
        }
    ], 
    "samplers" : [
        {}
    ], 
    "scene" : 0, 
    "scenes" : [
        {
            "name" : "Scene", 
            "nodes" : [
                1, 
                0, 
                2, 
                3, 
                4
            ]
        }
    ], 
    "textures" : [
        {
            "sampler" : 0, 
            "source" : 0
        }
    ]
}
